# xmcd CD database file
#
# Track frame offsets:
#	150
#	29407
#	57300
#	100087
#	128177
#	151937
#	174797
#	213350
#	250575
#
# Disc length: 3733 seconds
#
# Revision: 0
# Processed by: cddbd v1.5.1PL0 Copyright (c) Steve Scherf et al.
# Submitted via: CDex 1.51
#
DISCID=6b0e9309
DTITLE=Toshiko Akiyoshi - Best Selection
DYEAR=1900
DGENRE=Jazz
TTITLE0=Cleopatra's Dream
TTITLE1=Un Poco Loco
TTITLE2=Remembering Bud
TTITLE3=My Elegy
TTITLE4=Don't Be afraid Of Crown
TTITLE5=No Dues Blues
TTITLE6=Get Out And Get Under The Moon
TTITLE7=The Night Has A Thousand Eyes
TTITLE8=Round About Midnight
EXTD=
EXTT0=
EXTT1=
EXTT2=
EXTT3=
EXTT4=
EXTT5=
EXTT6=
EXTT7=
EXTT8=
PLAYORDER=
